# xmcd
# 
# Track frame offsets:
#     182
#     4805
#     24115
#     45355
#     58650
#     66982
#     82057
#     85730
#     89965
#     100617
#     116940
#     123515
#     133042
#     137485
#     150137
#     175850
#     200507
#     215110
#     231232
#     236617
#     252555
# 
# Disc length: 3634
# 
# Revision: 6
# Processed by: cddbd v1.5.2PL0 Copyright (c) Steve Scherf et al.
# Submitted via: fre:ac v1.0.31
# 
DISCID=240e3015
DTITLE=Michael Martin Murphey - Sagebrush Symphony
DYEAR=1995
DGENRE=Country
TTITLE0=Sounds Of The Range
TTITLE1=Cowboy Overture - Backward, Turn Backward
TTITLE2=Cowboy Logic
TTITLE3=The Old Chisholm Trail
TTITLE4=Down In The Valley
TTITLE5=Red River Valley
TTITLE6=Tumbling Tumbleweeds (featuring Sons Of The San Joaquin)
TTITLE7=Cool Water  (featuring Sons Of The San Joaquin)
TTITLE8=Timber Trail (featuring Sons Of The San Joaquin)
TTITLE9=Back In The Saddle Again (featuring Herb Jeffries)
TTITLE10=I'm A Happy Cowboy (featuring Herb Jeffries)
TTITLE11=Texas To A ''T'' (featuring herb Jeffries)
TTITLE12=Storm On The Prairie
TTITLE13=Rider In The Sky
TTITLE14=Wildfire
TTITLE15=Wind Message (featuring Robert Mirabel)
TTITLE16=Geronimo's Cadillac
TTITLE17=Adobe Walls
TTITLE18=Yellow Rose Of Texas
TTITLE19=San Antonio Rose (featuring Rick Orozco)
TTITLE20=Happy Trails
EXTD=YEAR: 1995
EXTT0=
EXTT1=
EXTT2=
EXTT3=
EXTT4=
EXTT5=
EXTT6=
EXTT7=
EXTT8=
EXTT9=
EXTT10=
EXTT11=
EXTT12=
EXTT13=
EXTT14=
EXTT15=
EXTT16=
EXTT17=
EXTT18=
EXTT19=
EXTT20=
PLAYORDER=
